<svg width="915" height="984" viewBox="0 0 915 984" fill="none" xmlns="http://www.w3.org/2000/svg">
<path d="M430.441 981.58C425.771 980.54 419.021 978.58 415.441 977.22C407.551 974.21 377.211 959.05 361.441 950.23C355.111 946.69 332.841 934.22 311.941 922.5C291.041 910.79 250.091 887.93 220.941 871.7C93.851 800.94 59.301 781.17 47.241 772.29C27.801 757.97 10.731 732.73 4.56099 709.18C-0.209007 690.96 -0.0690058 698.2 0.0309942 486.97L0.120994 287.97L4.74099 274.17C13.351 248.46 24.971 230.4 41.451 217.15C57.061 204.59 82.161 189.84 189.441 130.21C226.561 109.58 266.611 87.19 278.441 80.47C290.271 73.75 314.341 60.14 331.941 50.22C349.541 40.3 368.211 29.71 373.441 26.68C388.071 18.2 407.981 8.75 418.021 5.51C432.321 0.910002 439.221 0 459.941 0C481.811 0.01 487.491 1.12 506.201 9.09C520.831 15.32 528.911 19.69 597.441 58.47C630.161 76.99 686.191 108.48 721.941 128.44C757.691 148.4 800.221 172.15 816.441 181.21C853.271 201.78 869.431 212.38 880.021 222.93C898.741 241.56 911.371 268.93 913.481 295.47C914.571 309.14 914.571 605.43 913.481 662.97C912.611 709.19 912.581 709.36 902.501 729.97C893.701 747.95 877.741 765.82 859.441 778.17C852.571 782.81 819.211 801.62 721.871 855.73C672.961 882.92 613.141 916.19 588.941 929.67C513.291 971.8 501.741 977.46 484.011 981.08C480.051 981.89 468.571 982.74 457.941 983C441.791 983.4 437.671 983.19 430.441 981.58ZM469.581 972.47C492.331 970.59 503.941 965.4 576.941 924.47C592.341 915.83 624.741 897.84 648.941 884.49C673.141 871.13 711.391 849.85 733.941 837.2C756.491 824.55 785.941 808.13 799.391 800.71C846.541 774.69 864.871 763 874.461 752.83C887.871 738.6 896.721 721.37 902.131 698.96C903.681 692.56 903.851 676.46 904.181 508C904.531 321.92 904.121 292.88 900.981 280.97C895.411 259.86 881.681 237.51 866.551 224.92C859.841 219.33 830.041 201.23 792.941 180.2C690.901 122.36 530.711 33.12 513.441 24.49C506.021 20.77 496.461 16.54 492.201 15.08C469.891 7.42 440.051 8.04 418.441 16.6C404.701 22.06 366.191 42.91 271.941 95.94C243.341 112.04 205.991 132.97 188.941 142.47C125.781 177.64 62.891 213.98 55.341 219.66C36.071 234.19 22.251 254.78 14.301 280.82L11.201 290.97L10.721 477.47C10.191 679.77 10.401 691.45 14.941 706.96C20.461 725.82 30.371 742.61 43.861 755.98C53.731 765.76 56.681 767.54 149.941 819.97C187.891 841.3 226.591 863.13 235.941 868.47C245.291 873.82 273.191 889.34 297.941 902.96C322.691 916.59 351.711 932.69 362.441 938.74C416.301 969.13 422.901 971.58 455.441 973.31C456.821 973.38 463.181 973 469.581 972.47ZM441.271 952.51C424.171 949.38 409.301 942.35 353.441 910.96C340.521 903.7 310.361 887.05 286.441 873.98C233.951 845.29 199.901 826.18 180.441 814.5C172.461 809.71 159.421 802.18 151.441 797.77C118.231 779.39 77.541 755.94 71.941 751.97C68.641 749.62 61.831 743.45 56.801 738.25C48.731 729.9 46.951 727.35 41.501 716.38C31.241 695.73 32.141 716.21 31.721 492.38L31.361 296.78L35.291 285.76C39.821 273.07 44.781 262.81 50.311 254.67C55.001 247.77 67.921 235.25 76.021 229.77C82.231 225.55 148.261 187.75 182.141 169.01C193.031 162.99 211.171 152.82 222.441 146.41C233.711 140 262.741 123.83 286.941 110.47C311.141 97.12 338.591 81.81 347.941 76.46C373.081 62.08 410.871 41.89 418.911 38.55C431.021 33.51 440.821 31.96 459.941 32.05C480.741 32.15 486.971 33.61 505.941 42.82C517.621 48.48 561.461 72.78 624.441 108.48C636.821 115.5 663.591 130.47 683.941 141.75C820.691 217.58 842.131 230.07 854.231 240.97C869.341 254.57 880.371 279.32 882.541 304.47C883.171 311.74 883.401 385.08 883.181 503.97L882.831 691.97L880.711 699.33C878.251 707.83 871.971 721.36 867.291 728.23C863.011 734.51 852.281 745.67 845.441 750.94C838.101 756.6 819.491 767.42 762.011 799.43C506.471 941.78 497.421 946.65 481.431 950.44C471.001 952.92 449.531 954.03 441.271 952.51ZM476.791 941.44C484.531 940.32 503.351 933.33 505.751 930.68C506.611 929.72 508.471 925.32 509.871 920.89C514.381 906.59 530.971 875.53 543.161 858.54C546.091 854.45 548.351 850.71 548.191 850.23C548.031 849.75 545.251 848.27 542.011 846.96C522.571 839.06 518.561 818.1 533.751 803.74C536.641 801.01 540.791 798.2 542.971 797.5C549.101 795.54 549.261 794.88 544.751 790.22C542.501 787.88 539.911 784.48 539.001 782.67C534.451 773.63 536.571 761.46 544.091 753.41C551.081 745.94 558.971 743.78 572.101 745.74L577.261 746.52L579.411 740.06C582.091 732.01 587.251 725.13 592.741 722.28C596.231 720.47 598.631 720.11 606.941 720.1C617.621 720.1 620.231 720.9 626.331 726.04C633.381 731.96 634.901 726.53 634.921 695.47C634.951 663.32 633.171 654.63 622.211 633.17C615.421 619.88 610.081 612.92 600.281 604.57C588.491 594.53 536.151 563.67 537.681 567.66C538.831 570.65 569.911 610.57 570.261 609.51C570.461 608.92 569.901 606.34 569.031 603.78C566.961 597.71 566.921 590.61 568.951 589.83C571.641 588.8 573.291 591.44 576.861 602.49C580.171 612.76 591.331 636.65 595.701 642.81C598.741 647.12 599.411 644.76 599.441 629.47C599.481 610.62 600.671 607.36 604.471 615.72C606.171 619.46 606.401 622.38 606.421 640.24L606.441 660.51L609.941 671.24C615.231 687.47 616.351 688.13 618.411 676.25C619.811 668.1 623.451 657.34 624.871 657.11C627.851 656.65 627.121 671.56 623.461 685.89C622.051 691.42 621.441 697.03 621.441 704.57C621.441 711.11 621.021 715.61 620.381 716.01C618.891 716.93 615.741 713.89 611.731 707.67C607.571 701.21 601.731 697.32 587.441 691.5C567.411 683.35 559.761 678.75 562.191 676.32C563.511 675 574.171 678.37 593.301 686.15C600.651 689.13 606.901 691.35 607.181 691.06C608.551 689.69 597.851 668 594.351 665.05C592.871 663.8 585.641 660.41 578.301 657.52C570.951 654.63 562.561 650.91 559.651 649.27C554.281 646.23 550.781 642.34 551.861 640.6C552.401 639.72 566.321 644.7 583.681 651.99C587.391 653.54 590.691 654.56 591.011 654.24C592.861 652.38 579.361 633.89 572.921 629.45C570.401 627.72 561.951 622.92 554.141 618.78C537.881 610.16 534.441 607.91 534.441 605.9C534.441 603.75 536.081 604.07 549.881 608.97C556.851 611.44 562.231 612.9 561.831 612.22C561.431 611.53 556.751 605.35 551.421 598.47C546.091 591.59 539.211 582.14 536.151 577.47C533.081 572.8 529.301 567.17 527.751 564.97L524.941 560.97L524.621 566.97C524.171 575.34 526.231 608.13 527.511 612.97C528.101 615.17 532.591 625.3 537.501 635.47C544.471 649.92 547.091 656.6 549.451 665.97C551.111 672.57 553.651 680.4 555.101 683.36C558.461 690.25 566.271 698.01 579.401 707.47C585.121 711.59 589.981 715.53 590.201 716.22C591.041 718.8 583.661 717.48 576.291 713.72C571.081 711.06 566.431 707.5 560.311 701.47C549.691 691.01 545.821 683.79 540.871 665.21C537.991 654.4 535.921 649.27 529.421 636.86C525.051 628.53 520.731 618.85 519.831 615.34C518.521 610.28 518.091 602.13 517.711 575.72C517.401 553.68 517.581 542.47 518.251 542.47C518.811 542.47 521.441 544.19 524.101 546.28C532.161 552.63 543.011 559.61 562.441 570.96C604.791 595.69 618.211 607.63 630.261 631.3C635.141 640.87 637.921 648.35 640.951 659.97C644.951 675.38 644.611 713.06 640.311 729.54C639.051 734.4 638.331 738.69 638.721 739.08C639.771 740.14 642.811 737.08 651.761 725.97C665.461 708.95 676.641 696.41 680.351 693.88C684.361 691.16 687.441 690.75 687.441 692.93C687.441 695.17 677.651 709.05 664.451 725.54C652.671 740.25 649.691 744.47 651.091 744.47C651.481 744.47 655.891 742.01 660.871 738.99C686.111 723.75 706.101 718.46 739.431 718.2C755.991 718.07 760.881 719.05 776.261 725.56C802.591 736.71 810.701 739.83 820.331 742.53C826.081 744.15 832.751 745.47 835.141 745.47C839.171 745.47 839.971 744.99 845.721 739.15C849.141 735.68 854.111 729.6 856.761 725.64C861.411 718.7 869.441 702.83 869.441 700.57C869.441 698.03 857.111 700.11 815.941 709.62C783.801 717.04 781.721 717.32 778.491 714.71L776.041 712.73L778.991 711.22C781.801 709.78 811.571 701.43 832.941 696.09C844.611 693.18 863.201 689.64 868.941 689.25L872.941 688.97L873.241 672.97C873.401 664.17 873.281 655.58 872.971 653.87L872.411 650.78L862.421 651.26C852.181 651.75 850.831 651.24 854.231 648.16C857.001 645.66 862.751 643.57 868.871 642.85L874.441 642.19V630.91C874.441 624.71 874.161 618.9 873.811 617.99C873.311 616.7 871.891 617.68 867.051 622.66C860.611 629.29 840.141 646.9 829.941 654.61C812.311 667.93 789.471 675.27 768.641 674.33C760.051 673.94 756.251 672.23 758.651 669.84C759.901 668.58 763.531 667.96 784.441 665.4C807.751 662.55 822.071 654.63 849.191 629.61C854.281 624.91 858.441 620.79 858.441 620.45C858.441 619.62 839.401 617.46 832.101 617.46C828.891 617.47 822.821 618.41 818.601 619.57C806.171 622.98 806.141 623 812.941 624.91C834.511 630.97 836.021 631.66 832.941 634.08C830.101 636.31 821.261 635.38 809.071 631.56C803.641 629.86 797.291 628.47 794.971 628.47C789.081 628.47 772.441 634.49 772.441 636.63C772.441 637.85 777.051 639.9 787.641 643.4C802.961 648.46 807.161 653.35 795.111 652.09C787.831 651.33 749.441 638.59 749.441 636.94C749.441 636.3 751.351 634.92 753.681 633.87C759.961 631.06 763.971 627.1 770.731 617.02C777.391 607.12 785.951 597.47 788.091 597.47C790.881 597.47 789.381 600.88 780.291 615.18C777.071 620.25 774.441 624.84 774.441 625.38C774.441 626.67 783.561 623.94 789.771 620.8C795.011 618.15 799.861 613.58 814.431 597.56L823.901 587.14L813.921 587.79C801.311 588.61 794.251 590.47 782.941 595.96C771.161 601.68 759.751 610.99 747.421 624.95C741.921 631.17 736.761 636.52 735.961 636.82C729.181 639.42 739.531 621.47 752.051 608.92C763.851 597.08 784.481 584.74 796.171 582.52C798.801 582.02 810.841 581.33 822.941 580.97C853.801 580.06 862.131 579.17 868.181 576.1C873.011 573.66 873.171 573.43 873.791 568.28C874.571 561.72 874.421 522.5 873.571 512.97L872.941 505.97L867.511 513.97C856.561 530.1 843.711 541.11 827.931 547.89C816.941 552.61 808.211 554.82 785.941 558.51C761.641 562.54 758.531 563.52 753.951 568.59C749.851 573.13 747.121 578.76 743.051 591.08C741.581 595.53 739.801 599.96 739.101 600.92C737.961 602.48 737.641 602.21 736.001 598.31C729.261 582.32 726.621 579.17 705.941 562.36C691.931 550.97 682.941 541.9 679.031 535.19C676.401 530.67 658.761 489.2 656.031 481.11C652.071 469.38 651.701 453.03 655.031 436.97C657.171 426.64 661.301 412.76 664.181 406.21C667.241 399.27 667.961 399.57 673.141 409.91C680.511 424.63 687.051 431.88 713.351 454.47C741.011 478.22 746.321 488.1 749.551 521.72C750.221 528.73 751.111 534.47 751.521 534.47C752.401 534.47 753.681 529.06 759.931 498.83L764.501 476.74L755.981 458.09C740.621 424.48 737.821 413.64 738.701 391.25C739.501 370.75 744.671 354.06 756.901 332.45C765.281 317.65 776.351 301.27 777.681 301.72C778.321 301.93 781.601 308.38 784.971 316.04C788.331 323.7 793.701 335.82 796.901 342.97C808.531 368.94 810.951 379.2 810.201 399.44C809.781 410.65 809.381 412.86 806.411 420.45C801.451 433.12 792.271 450.49 785.091 460.81C774.811 475.57 773.951 477.82 768.441 503.83C766.711 512 763.961 523.2 762.321 528.72C757.641 544.46 758.961 544.83 766.781 529.97C779.201 506.39 790.561 491.11 802.541 481.9C809.601 476.46 822.311 469.56 831.951 465.93C837.111 463.98 871.701 453.47 872.941 453.47C873.041 453.47 873.401 426.36 873.741 393.22C874.611 310.62 873.511 292.71 866.621 277.15L864.741 272.89L850.841 271.25C829.231 268.72 715.611 253.9 679.441 248.91C615.031 240.01 589.751 235.97 587.671 234.24C586.941 233.64 586.471 232.02 586.641 230.66C587.171 226.26 589.261 225.87 602.151 227.78C608.631 228.73 635.321 232.41 661.441 235.94C687.561 239.47 738.861 246.41 775.441 251.36C856.631 262.35 858.441 262.56 858.441 260.64C858.441 258.57 841.931 242.52 835.441 238.29C830.531 235.09 757.351 193.62 736.941 182.47C732.541 180.07 706.891 165.66 679.941 150.45C652.991 135.24 621.721 117.71 610.441 111.49C599.161 105.28 582.741 96.03 573.941 90.95C556.231 80.73 523.301 62.71 521.521 62.26C520.861 62.09 518.301 68.16 515.401 76.78C512.661 84.92 509.531 93.32 508.451 95.45C505.971 100.31 502.971 101.44 500.131 98.6L498.051 96.53L501.361 86.75C503.181 81.37 506.601 72.57 508.971 67.18L513.281 57.39L509.611 55.08C503.371 51.14 490.321 45.82 480.921 43.39C468.351 40.13 447.961 40.09 434.941 43.31C425.951 45.53 410.291 52.43 405.301 56.36L402.661 58.44L405.941 64.71C409.861 72.16 418.441 93.49 418.441 95.76C418.441 97.68 414.721 100.47 412.151 100.47C410.871 100.47 409.471 98.6 407.491 94.22C404.021 86.56 398.441 68.13 398.441 64.35C398.441 62.83 397.991 61.31 397.451 60.98C396.331 60.28 398.161 59.29 338.941 92.52C314.741 106.09 272.441 129.7 244.941 144.98C189.441 175.82 107.581 221.92 94.441 229.74C81.501 237.44 70.681 245.26 65.031 251.01C59.551 256.58 56.671 261.03 57.811 262.17C58.201 262.56 65.811 261.88 74.731 260.65C181.781 245.9 256.151 235.45 292.941 229.97C305.591 228.09 318.991 226.53 322.711 226.51C329.061 226.47 329.561 226.63 330.681 229.09C332.631 233.37 329.591 234.86 313.751 237.4C275.381 243.54 174.601 257.35 94.441 267.45C72.161 270.26 52.951 272.77 51.731 273.02C49.941 273.4 48.971 275.24 46.531 282.85C44.881 288.01 43.021 295.77 42.411 300.1C41.721 304.96 41.081 335.03 40.741 378.83C40.281 438.26 40.421 449.84 41.571 450.58C42.321 451.07 53.331 454.86 66.021 459C78.721 463.14 92.551 468.27 96.761 470.38C106.191 475.12 116.641 483.55 125.401 493.5C134.271 503.56 136.831 507.42 145.921 524.47C156.651 544.59 159.271 547.31 155.391 534.32C154.191 530.28 150.611 516.62 147.431 503.97C144.261 491.32 140.721 478.5 139.561 475.47C138.401 472.45 134.081 464.82 129.961 458.54C125.831 452.25 118.361 439.04 113.351 429.19L104.251 411.28L104.661 393.13C105.061 375.32 105.131 374.76 108.711 364.39C110.721 358.57 117.051 342.82 122.791 329.39C135.871 298.76 135.531 299.47 136.911 299.47C139.171 299.47 159.351 332.41 165.531 346.18C167.211 349.91 170.201 357.47 172.171 362.97C175.681 372.78 175.761 373.33 176.211 391.31C176.851 417.19 176.591 418.24 161.101 451.47L152.941 468.97L153.011 478.47C153.111 490.78 161.071 533.47 163.271 533.47C163.681 533.47 164.541 527.89 165.201 521.06C168.691 484.63 175.221 472.89 205.711 448.34C225.551 432.36 231.601 426.02 239.201 413.23C247.311 399.59 247.771 399.23 250.361 404.31C258.031 419.35 262.441 435.87 262.401 449.47C262.361 467.2 261.391 471.06 249.901 499.59C244.051 514.1 237.551 528.89 235.441 532.47C229.861 541.96 221.781 550.34 207.541 561.4C192.311 573.23 187.621 578.17 183.081 587.2C181.171 590.99 178.861 594.71 177.951 595.46C175.901 597.16 175.661 596.84 171.331 586.47C161.821 563.7 159.891 562.38 128.331 556.97C85.591 549.66 76.311 545.54 56.781 525.26C51.741 520.03 46.691 513.92 45.551 511.68C44.401 509.44 43.061 507.35 42.561 507.04C40.031 505.48 39.731 571.71 42.251 574.74C44.881 577.91 55.451 578.78 82.321 578.04C117.261 577.07 123.251 578.43 144.101 592.06C154.911 599.14 174.151 618.01 176.881 624.23C180.571 632.64 177.941 631.09 159.441 613.97C146.301 601.81 136.351 594.87 125.681 590.43C115.201 586.06 110.171 585.49 81.941 585.43C68.191 585.4 53.561 584.99 49.441 584.51C45.321 584.03 41.721 583.87 41.441 584.16C40.541 585.08 49.231 591.89 58.171 597.26C62.981 600.16 67.061 602.1 67.241 601.57C67.411 601.05 66.601 598.74 65.431 596.45C61.691 589.13 64.911 589.89 75.941 598.94C79.791 602.1 84.511 605.48 86.441 606.45C90.711 608.61 103.441 611.59 103.441 610.43C103.441 609.97 100.291 605.94 96.441 601.47C88.201 591.9 86.831 589.68 88.301 588.21C89.911 586.6 93.561 589.45 108.441 604.02C115.871 611.28 123.301 617.92 124.971 618.76C128.471 620.53 139.651 623.59 140.291 622.96C140.521 622.72 136.831 616.62 132.081 609.4C127.331 602.18 123.441 595.86 123.441 595.37C123.441 591.62 135.461 602.78 143.061 613.59C146.011 617.78 151.351 624.37 154.931 628.24C158.511 632.1 161.441 635.52 161.441 635.83C161.441 636.14 159.531 636.9 157.191 637.52C154.851 638.14 149.391 640.2 145.051 642.1C136.601 645.79 120.031 650.47 115.391 650.47C112.291 650.47 110.651 648.86 112.191 647.32C112.731 646.78 120.011 643.71 128.391 640.49C136.761 637.27 143.821 634.43 144.081 634.17C144.941 633.31 127.441 627.49 122.111 626.86C117.871 626.36 115.031 626.82 107.401 629.26C96.901 632.61 83.521 634.95 80.441 633.97C75.371 632.36 80.281 629.48 94.201 625.9C107.341 622.52 107.551 622.45 106.931 621.46C106.641 620.99 102.921 619.78 98.671 618.79C90.501 616.87 67.591 616.52 58.631 618.17L54.311 618.97L68.021 629.97C101.731 657.01 106.241 659.36 130.441 662.46C142.311 663.98 150.401 665.59 150.991 666.55C153.201 670.13 127.531 671.3 115.441 668.17C100.331 664.27 83.851 653.85 54.441 629.63L41.941 619.33L41.101 625.15C40.631 628.39 40.701 644.92 41.251 662.47C42.331 696.91 42.441 697.6 49.441 711.47C54.251 721.01 59.791 728.78 67.811 737.22L74.921 744.71L81.861 744.07C95.771 742.77 107.501 738.92 132.281 727.49C150.141 719.26 157.461 717.47 173.381 717.47C203.031 717.47 227.171 723.6 249.941 736.92C263.241 744.7 263.441 744.79 263.441 743.12C263.441 741.02 256.941 731.74 244.431 715.97C231.891 700.16 227.971 694.13 228.821 691.92C229.341 690.57 229.761 690.58 232.571 692.04C236.831 694.24 243.151 700.75 253.881 713.97C264.151 726.62 273.681 737.47 274.521 737.47C274.841 737.47 274.261 731.51 273.231 724.22C270.731 706.63 270.531 678.55 272.811 665.68C275.091 652.78 280.691 636.06 286.731 624.08C295.431 606.85 309.651 594.53 343.441 574.96C360.521 565.08 377.831 553.85 386.731 546.88C390.531 543.9 394.221 541.47 394.931 541.47C395.631 541.47 396.481 542.48 396.811 543.72C397.791 547.37 397.511 595.23 396.461 604.39C395.191 615.39 393.701 619.73 384.411 639.47C380.131 648.55 375.961 658.22 375.131 660.97C368.781 682 367.151 686.56 364.381 690.97C360.251 697.55 356.341 701.59 348.441 707.42C338.221 714.98 331.041 718.65 327.241 718.29C324.731 718.05 323.941 717.5 323.941 716C323.941 714.58 326.341 712.6 332.411 709C337.801 705.8 344.201 700.7 350.031 694.97C360.181 684.98 361.051 683.3 366.471 663.36C369.341 652.81 372.941 644.42 381.861 627.47C385.421 620.7 386.541 617.34 387.331 610.97C389.791 591.38 389.841 564.47 387.421 564.47C386.951 564.47 384.001 568.63 380.861 573.72C374.481 584.08 371.701 587.85 362.931 598.01C354.661 607.6 351.061 612.42 351.691 613.05C351.981 613.35 356.661 611.92 362.081 609.89C374.811 605.12 376.931 604.53 378.341 605.41C380.591 606.8 378.181 609.47 372.091 612.35C345.381 624.96 344.031 625.72 338.451 631.33C333.051 636.77 322.661 652.03 323.681 653.04C323.951 653.32 329.521 651.45 336.061 648.9C365.991 637.22 373.621 635.71 365.131 643.17C363.311 644.77 356.221 648.47 349.381 651.4C324.481 662.06 317.321 666.77 313.041 675.33C310.251 680.9 307.041 690.41 307.721 691.09C307.991 691.35 317.771 687.69 329.451 682.94C345.481 676.43 350.961 674.6 351.811 675.48C354.061 677.79 345.281 683.91 331.681 689.49C311.931 697.59 308.521 699.57 302.621 706.36C299.541 709.9 296.491 712.47 295.371 712.47C293.601 712.47 293.441 711.69 293.441 703.05C293.441 696.84 292.611 689.77 291.001 682.3C287.381 665.45 286.851 659.21 288.881 657.52C291.641 655.23 293.311 658.14 295.491 669.04C298.811 685.59 299.051 685.75 304.081 674.88C308.131 666.1 309.351 657.58 309.501 636.97C309.621 619.58 310.341 614.97 312.941 614.97C314.831 614.97 314.941 615.66 315.021 627.97C315.151 648.01 315.241 649.07 316.691 647.63C318.531 645.8 328.961 628.04 332.921 619.97C335.061 615.62 336.971 609.57 337.971 603.97C340.501 589.78 340.771 589 343.191 588.66C346.041 588.24 346.921 591.62 346.071 599.74L345.431 605.82L348.011 603.41C350.651 600.93 372.961 572.12 377.731 565.03C379.191 562.86 380.201 560.9 379.971 560.67C379.741 560.44 376.941 562.28 373.751 564.76C370.551 567.23 360.291 573.64 350.941 579C312.051 601.27 300.631 611.82 290.611 634.72C277.681 664.27 275.141 694.88 282.951 727.28C283.491 729.53 283.611 729.49 288.031 725.6C299.271 715.7 317.291 716.27 327.871 726.85C332.101 731.08 333.541 733.82 335.431 741.21L336.511 745.44L345.221 744.84C350.521 744.47 355.551 744.67 358.051 745.35C366.101 747.55 376.741 759.61 377.991 767.98C378.891 773.98 376.311 782.11 371.441 788.59C369.241 791.52 367.441 794.18 367.441 794.49C367.441 794.81 368.991 795.63 370.881 796.31C375.541 798 384.061 805.82 386.701 810.86C389.501 816.17 389.801 830.24 387.221 835.05C384.841 839.47 378.221 845.13 371.901 848.12C368.901 849.54 366.441 851.25 366.441 851.91C366.441 852.57 367.951 854.88 369.801 857.04C379.921 868.88 397.841 901.73 403.861 919.47C405.441 924.14 407.461 928.83 408.341 929.87C410.561 932.52 423.161 938.22 431.761 940.48C439.971 942.63 464.881 943.16 476.791 941.44ZM397.441 922.91C397.441 920.93 382.591 891.55 374.021 876.58C366.301 863.1 357.231 850.93 353.421 848.96C348.031 846.17 348.881 848.75 359.111 866.18C364.031 874.57 371.361 889.31 380.731 909.63C383.751 916.2 385.021 917.81 389.591 920.88C395.391 924.79 397.441 925.32 397.441 922.91ZM533.441 909.47C535.361 905.35 543.121 889.48 550.681 874.22C558.231 858.96 564.031 846.47 563.571 846.47C561.161 846.47 542.091 873.55 534.211 888.16C528.151 899.4 518.521 920.78 519.091 921.72C519.371 922.16 521.921 921.27 524.761 919.74C529.421 917.25 530.291 916.22 533.441 909.47ZM371.441 908.31C371.441 907 353.841 872.54 347.901 862.22C345.761 858.51 343.481 855.47 342.841 855.47C342.191 855.47 339.471 857.3 336.801 859.54C328.261 866.69 325.021 867.96 315.441 867.94C307.921 867.92 306.311 867.58 301.471 864.95C293.961 860.86 291.851 857.41 287.841 842.72C287.611 841.85 285.041 841.47 279.441 841.47C272.891 841.47 270.481 841.02 266.591 839.05C260.411 835.91 254.771 829.64 253.771 824.78C251.901 815.69 254.111 803.85 258.601 798.88C260.481 796.8 260.451 796.74 255.221 790.85C252.311 787.58 249.251 783.86 248.411 782.58L246.881 780.24L231.911 787.73C214.501 796.44 197.331 803.98 192.701 804.95C190.921 805.32 189.221 806.01 188.931 806.48C188.151 807.75 194.611 811.91 216.941 824.47C227.941 830.66 242.561 839 249.441 842.99C256.321 846.99 273.421 856.54 287.441 864.22C341.381 893.75 365.011 906.81 366.911 908.11C369.331 909.78 371.441 909.87 371.441 908.31ZM570.941 894.72C577.541 891.15 605.891 875.51 633.941 859.97C661.991 844.42 692.821 827.4 702.441 822.14C712.061 816.88 721.281 811.85 722.911 810.94L725.881 809.31L696.521 794.89C680.361 786.96 667.021 780.47 666.871 780.47C666.711 780.47 665.001 783.08 663.061 786.27C661.121 789.46 658.611 792.91 657.491 793.93C654.831 796.33 654.871 796.6 658.631 801.93C661.121 805.47 661.901 807.75 662.241 812.43C662.871 821.14 661.891 824.63 656.931 831.37C651.431 838.84 647.151 841.14 637.011 842.06C629.191 842.77 626.451 844.12 626.431 847.29C626.411 850.26 620.661 859.12 616.371 862.8C611.711 866.79 604.881 869.48 599.511 869.45C593.391 869.41 582.681 864.2 573.771 856.92L570.601 854.33L565.501 863.65C559.461 874.69 542.441 908.11 542.441 908.93C542.441 909.62 554.821 903.45 570.941 894.72ZM321.221 859.92C325.521 858.13 331.381 852.76 335.511 846.83L338.391 842.68L335.341 835.2L332.301 827.72L327.731 827.1C320.531 826.11 304.501 826.37 302.381 827.5C294.531 831.7 296.401 851.21 305.371 858.76C309.161 861.95 315.281 862.4 321.221 859.92ZM610.401 858.01C614.651 853.94 618.441 845.91 618.441 840.99C618.441 838.73 617.431 834.89 616.191 832.43C613.291 826.69 610.551 825.97 595.031 826.94L583.251 827.68L580.861 832.82C576.501 842.17 578.021 847.95 587.071 856.51L592.551 861.68L599.951 861.31C606.501 860.98 607.691 860.6 610.401 858.01ZM368.051 840.99C372.921 839.55 377.081 836.15 379.321 831.79C380.911 828.68 380.711 817.89 378.991 814.57C375.371 807.57 365.111 801.53 356.781 801.49C350.601 801.47 348.821 803.17 343.561 814.16C340.771 819.97 340.301 821.89 340.871 824.96C341.861 830.25 349.241 837.86 355.801 840.39C362.101 842.81 361.951 842.81 368.051 840.99ZM564.121 837.9C568.391 834.76 573.441 826.74 573.441 823.08C573.441 819.43 567.581 806.61 564.521 803.55C558.661 797.69 538.981 805.66 534.401 815.74C530.641 824.03 532.141 830.25 539.481 836.89L543.661 840.66L552.481 840.32C559.461 840.04 561.881 839.54 564.121 837.9ZM284.911 834.05C287.221 833.08 289.031 831.24 290.491 828.37C293.501 822.48 292.831 815.68 288.361 806.79L284.941 799.97L277.571 800.11C269.461 800.27 266.661 801.63 262.811 807.29C253.131 821.49 269.001 840.7 284.911 834.05ZM642.541 834.33C646.511 833.01 651.031 829.1 653.031 825.27C655.091 821.33 654.801 813.1 652.451 808.5C649.401 802.51 647.231 801.47 637.731 801.47H629.461L625.451 809.45C622.491 815.34 621.441 818.64 621.441 822.08C621.441 826.24 621.901 827.2 625.811 831.1C629.671 834.96 630.701 835.47 634.661 835.47C637.121 835.47 640.671 834.96 642.541 834.33ZM328.131 816.04C334.801 812.93 338.611 807.45 339.221 800.08C339.761 793.64 337.431 788.5 331.581 783.22C324.621 776.93 316.851 775.92 308.381 780.22C302.181 783.36 298.141 788.5 296.291 795.63C295.131 800.09 295.221 800.58 298.511 807.13C303.131 816.34 306.391 818.47 315.841 818.46C321.231 818.45 324.191 817.87 328.131 816.04ZM609.601 815.56C614.931 811.91 617.721 807.17 618.241 800.88C619.681 783.54 602.381 772.29 586.691 780.36C579.601 784.01 574.441 791.63 574.441 798.47C574.441 804.69 581.451 814.9 587.441 817.4C588.821 817.97 593.571 818.34 598.011 818.21C604.671 818.01 606.711 817.55 609.601 815.56ZM212.831 788.36C228.841 780.65 242.881 773.74 244.041 772.99C246.011 771.7 250.241 759.93 249.121 758.82C248.431 758.12 237.211 760.3 230.001 762.52C223.051 764.67 217.741 768.36 206.091 779.1C197.631 786.91 193.321 789.24 191.461 787C190.041 785.28 196.671 777.2 209.141 765.46L218.181 756.96L207.271 757.65C190.821 758.69 187.671 760.17 180.181 770.33C174.711 777.75 167.831 785.13 163.231 788.49L159.521 791.2L161.731 793.25C166.001 797.21 178.791 803.53 181.331 802.93C182.651 802.61 196.831 796.06 212.831 788.36ZM743.351 799.33C747.531 797.06 752.201 794.31 753.731 793.23L756.521 791.27L752.141 788.49C749.721 786.96 742.701 780.04 736.531 773.11C723.841 758.87 724.241 759.08 707.991 757.95L698.041 757.25L709.051 768.78C722.101 782.45 726.271 788.04 724.641 789.67C723.081 791.23 718.241 787.86 704.011 775.29C688.611 761.67 688.211 761.47 676.211 761.47H666.441V764.75C666.441 766.55 667.171 769.07 668.061 770.34C669.781 772.79 703.131 789.76 721.201 797.37C726.851 799.75 731.711 802.1 732.011 802.58C733.041 804.25 735.771 803.47 743.351 799.33ZM353.741 791.83C365.481 785.83 372.001 774.99 369.491 765.66C366.561 754.76 350.051 749.16 339.601 755.52C336.731 757.27 330.471 766.56 330.451 769.12C330.441 769.75 333.631 773.77 337.521 778.06C341.421 782.35 345.581 787.56 346.771 789.65C349.251 794 349.411 794.05 353.741 791.83ZM568.061 789.22C569.511 786.88 573.801 781.52 577.571 777.31C581.351 773.1 584.441 769.13 584.441 768.49C584.441 766.83 579.191 759.49 575.481 755.98C572.501 753.15 571.901 752.99 564.441 753.1C551.471 753.3 545.441 758.55 545.441 769.65C545.441 778.92 549.771 786.16 558.441 791.36C563.461 794.38 565.071 794.02 568.061 789.22ZM285.711 790.47C287.111 789.37 290.831 784.68 293.971 780.05C300.911 769.84 300.821 768.53 292.611 760.33C285.621 753.35 281.061 751.8 272.181 753.36C265.281 754.57 261.001 756.82 258.041 760.79C256.391 763.01 255.941 765.07 255.941 770.37C255.941 776.14 256.381 777.84 258.961 782C264.571 791.09 279.081 795.68 285.711 790.47ZM650.391 787.92C657.061 781.68 658.761 777.78 658.251 769.85C657.611 759.72 652.511 754.95 641.071 753.77C631.851 752.82 628.751 753.94 622.281 760.56C616.131 766.84 614.561 770.25 616.181 773.79C616.731 774.99 619.941 779.68 623.311 784.22L629.431 792.47H637.481H645.531L650.391 787.92ZM161.401 781.77C167.421 775.21 175.441 764.11 175.441 762.36C175.441 759.8 157.891 764.72 144.561 771.03C139.391 773.47 134.961 775.47 134.691 775.47C134.431 775.47 134.521 773.44 134.891 770.97L135.561 766.47H126.001C120.741 766.47 116.441 766.89 116.441 767.4C116.441 767.91 117.681 769.21 119.191 770.28C123.011 772.99 152.681 788.43 154.101 788.45C154.741 788.46 158.031 785.45 161.401 781.77ZM773.441 782.45C793.271 772.29 799.431 768.95 799.431 768.35C799.451 767.24 793.411 766.47 784.731 766.47H776.261L778.861 769.55C783.661 775.26 780.161 776.01 770.441 771.36C756.271 764.58 740.441 760.56 740.441 763.75C740.441 765.51 753.181 781.47 754.581 781.47C755.091 781.47 756.441 783.06 757.591 785C760.091 789.24 760.231 789.22 773.441 782.45ZM317.631 767.54C318.981 766.48 321.621 762.31 323.511 758.29C327.951 748.82 328.051 743.19 323.921 735.61C319.791 728.03 315.661 725.47 307.541 725.47H301.101L294.271 732.3C286.351 740.22 285.331 743.86 290.171 747.03C294.661 749.97 302.411 757.6 307.131 763.72C311.901 769.91 313.751 770.59 317.631 767.54ZM604.401 768.49C605.401 767.96 607.361 765.59 608.751 763.24C611.801 758.06 616.541 753.4 623.061 749.14C628.891 745.34 629.711 742.26 626.351 736.83C623.831 732.75 616.801 727.91 611.211 726.41C599.291 723.2 585.981 736.77 587.821 750.26C588.791 757.28 592.791 765.11 596.621 767.44C600.351 769.71 601.761 769.9 604.401 768.49ZM131.041 759.24C133.691 758.04 133.311 756.47 130.361 756.47C127.601 756.47 114.471 749.71 113.791 747.93C113.451 747.05 111.891 746.47 109.871 746.47C105.541 746.47 86.441 750.53 86.441 751.45C86.441 753.41 101.331 759.25 110.441 760.86C114.301 761.55 128.421 760.44 131.041 759.24ZM817.361 757.17C821.451 755.38 824.961 753.41 825.171 752.79C825.601 751.48 821.761 750.1 811.941 748.06C805.001 746.61 804.921 746.62 802.441 748.98C801.061 750.3 796.901 752.75 793.191 754.43C782.711 759.18 783.881 760.29 799.441 760.36C809.151 760.41 810.501 760.17 817.361 757.17ZM166.681 754.85C173.321 753.34 173.691 753.12 171.881 751.74C169.411 749.86 149.881 740.17 145.421 738.61C142.231 737.5 142.141 737.34 143.761 735.72C145.001 734.49 147.091 734.01 151.211 734.04C156.361 734.07 158.431 734.85 171.701 741.71C179.851 745.93 188.351 749.63 190.701 749.97C193.031 750.31 199.211 750.45 204.441 750.28L213.941 749.97L203.691 743.67C190.881 735.8 187.911 733.3 188.741 731.13C189.091 730.22 190.361 729.47 191.561 729.47C193.921 729.47 205.181 735.67 217.941 743.99C230.831 752.4 231.671 752.7 244.021 753.25C256.131 753.78 257.781 753.16 255.101 749.08C253.231 746.22 241.151 739.86 227.371 734.48C194.691 721.72 171.471 720.69 143.871 730.77C138.021 732.91 119.301 741.95 116.941 743.78C115.311 745.04 115.221 745.41 116.441 745.76C117.261 746 125.141 748.49 133.941 751.3C151.561 756.93 155.611 757.36 166.681 754.85ZM771.871 754.3C779.341 752.72 798.691 745.31 797.751 744.4C796.251 742.93 768.911 730.61 760.881 727.79C753.491 725.19 751.861 724.99 737.441 725C723.731 725 720.611 725.33 710.441 727.87C695.011 731.71 683.741 735.74 673.081 741.23C656.151 749.94 654.711 753.47 668.091 753.47C679.941 753.47 687.391 750.45 705.791 738.18C718.431 729.76 723.841 727.74 725.091 731.01C725.941 733.21 723.241 735.82 712.201 743.47C702.581 750.15 702.501 750.23 705.581 750.85C707.291 751.19 712.261 751.47 716.631 751.47H724.571L741.441 743.03C750.721 738.38 759.811 734.3 761.641 733.96C765.291 733.28 770.901 734.92 769.981 736.4C769.661 736.92 764.021 740.17 757.451 743.63C744.331 750.53 740.611 752.98 741.651 754.02C744.141 756.51 760.711 756.66 771.871 754.3ZM870.431 611.6C873.781 608.4 874.441 607.14 874.421 603.87C874.401 596.89 873.501 596.59 865.261 600.78C853.771 606.62 847.441 610.43 847.441 611.49C847.441 612.03 849.381 612.47 851.751 612.47C854.751 612.47 857.061 613.21 859.391 614.93C863.251 617.78 864.241 617.48 870.431 611.6ZM52.171 614.34C52.791 613.72 55.661 612.68 58.551 612.03C61.451 611.38 63.981 610.34 64.191 609.71C64.401 609.09 62.631 607.6 60.261 606.4C57.881 605.2 52.921 602.43 49.241 600.26C45.551 598.08 42.061 596.59 41.491 596.94C40.141 597.77 40.131 606.02 41.461 608.52C42.401 610.27 49.141 615.47 50.471 615.47C50.781 615.47 51.551 614.96 52.171 614.34ZM820.881 610.49C825.731 608.85 831.551 606.42 833.821 605.09C838.051 602.61 849.441 591.37 849.441 589.67C849.441 587.31 826.711 586.39 825.991 588.72C825.781 589.41 825.341 591.2 825.011 592.71C824.681 594.22 821.581 598.94 818.121 603.21C810.911 612.1 809.981 613.47 811.191 613.47C811.671 613.47 816.031 612.13 820.881 610.49ZM860.451 595.91C870.441 590.75 874.441 587.49 874.441 584.52C874.441 581.99 873.211 581.96 866.351 584.35C857.341 587.49 855.721 588.54 854.091 592.33C853.231 594.33 851.781 596.98 850.861 598.22C848.381 601.58 850.441 601.08 860.451 595.91ZM728.071 567.72C727.791 566.76 727.041 563.95 726.401 561.48C723.561 550.54 720.241 547.15 703.441 538.06C691.591 531.65 688.861 529.42 689.811 526.95C690.671 524.7 693.041 525.35 706.701 531.59C712.721 534.34 717.901 536.34 718.201 536.04C718.501 535.74 716.991 532 714.851 527.73L710.941 519.97L697.501 513.26C690.111 509.57 682.691 505.18 681.021 503.51L677.981 500.47H680.701C682.191 500.47 687.741 501.85 693.021 503.55C698.301 505.24 702.851 506.4 703.121 506.12C705.251 503.99 690.771 488.35 676.651 477.52C668.101 470.97 663.851 466.23 664.941 464.48C666.141 462.53 668.401 463.53 676.431 469.58C680.891 472.95 684.721 475.52 684.931 475.31C685.141 475.1 682.651 469.31 679.391 462.44C676.091 455.49 672.561 446.19 671.431 441.46C667.831 426.48 667.371 425.14 666.241 426.27C663.601 428.91 662.191 438.56 661.701 457.16L661.211 476.36L668.241 490.66C672.111 498.53 676.731 509.47 678.501 514.97C684.381 533.19 687.381 537.36 705.711 552.75C724.731 568.73 729.231 571.74 728.071 567.72ZM206.081 552.81C211.651 548.26 218.551 541.94 221.411 538.76C227.401 532.08 234.471 518.24 237.131 508.01C238.831 501.48 240.381 498.07 250.051 479.55L253.921 472.13L254.291 457.91C254.671 443.29 253.301 428.55 251.061 423.07C249.861 420.15 249.721 420.09 248.721 421.97C248.131 423.07 246.261 429.37 244.551 435.97C242.381 444.39 239.661 451.53 235.471 459.91C232.171 466.47 229.631 471.99 229.821 472.18C230.001 472.37 232.841 470.54 236.131 468.12C245.671 461.1 248.441 460 248.441 463.25C248.441 466.26 245.811 469.03 235.141 477.27C222.791 486.8 207.981 502.34 209.651 504.01C209.921 504.28 213.531 502.95 217.691 501.05C227.441 496.61 232.841 495.02 235.111 495.92C236.721 496.55 236.481 497.04 233.181 499.92C231.111 501.73 226.611 504.69 223.181 506.49C209.651 513.62 203.941 517.98 199.611 524.45C197.321 527.89 195.441 531.54 195.441 532.56C195.441 534.71 194.881 534.87 209.791 528.49C216.931 525.43 219.941 524.57 220.741 525.37C222.851 527.48 218.101 531.81 209.511 535.6C192.181 543.26 188.991 547.19 186.901 563.44L186.191 568.91L191.071 564.99C193.751 562.84 200.501 557.35 206.081 552.81ZM740.481 554.68C741.831 545.18 741.231 513.38 739.551 505.46C737.941 497.9 734.521 489.82 730.161 483.29C724.641 475.03 710.841 461.17 700.941 453.95C696.541 450.75 689.361 444.49 684.991 440.05C679.801 434.78 676.921 432.49 676.711 433.47C676.051 436.56 687.761 466.65 691.541 471.55C693.401 473.96 693.401 473.95 692.831 466.47C692.381 460.6 692.591 458.54 693.791 456.97C695.021 455.37 695.691 455.19 697.131 456.07C699.191 457.32 699.921 460.27 701.281 473.01C702.531 484.65 709.621 503.62 711.881 501.37C712.211 501.04 712.951 496.76 713.531 491.87C714.881 480.38 716.181 475.47 717.871 475.47C720.161 475.47 720.441 477.95 720.451 498.3C720.461 517.29 721.361 524.93 724.171 529.96C725.531 532.38 726.041 531.24 728.391 520.44C730.651 510.08 731.581 508.44 734.221 510.09C736.861 511.75 736.801 516.41 734.001 527.82C732.591 533.55 731.441 540.57 731.441 543.41C731.441 548.84 733.971 561.61 735.691 564.9C736.651 566.72 736.781 566.73 737.981 565.09C738.681 564.13 739.801 559.45 740.481 554.68ZM179.611 557.56C182.011 552.85 182.901 540.83 181.501 532.21C178.451 513.38 178.151 510.75 178.791 508.2C179.591 505.04 181.911 504.62 183.391 507.38C183.951 508.42 185.071 513.65 185.871 518.98C186.671 524.32 187.541 528.91 187.811 529.17C188.481 529.85 191.301 524.2 193.551 517.65C195.151 513.01 195.441 509.18 195.441 492.87C195.441 479.4 195.791 473.37 196.591 472.88C198.411 471.75 200.281 475.24 200.841 480.83C201.121 483.66 201.711 489.35 202.151 493.47L202.941 500.97L206.581 494.47C211.821 485.11 213.441 479.47 214.311 467.53C215.051 457.43 216.411 452.47 218.461 452.47C219.671 452.47 220.391 455.43 221.301 464.05L222.021 470.97L225.811 463.59C230.411 454.63 237.171 437.51 238.051 432.57L238.701 428.97L230.321 437.03C225.711 441.46 217.441 448.64 211.941 452.97C193.791 467.26 185.761 476.93 179.441 492.11C174.121 504.91 173.111 512.93 173.721 537.66C174.011 549.59 174.561 559.85 174.941 560.46C176.031 562.23 177.801 561.12 179.611 557.56ZM784.441 550.92C805.161 548.02 819.781 544.14 832.351 538.2C840.021 534.58 851.561 523.49 861.611 510.08C871.131 497.38 873.161 493.24 873.991 484.74C874.921 475.24 873.401 474.39 866.641 480.6C864.021 483.01 858.741 487.22 854.911 489.97L847.941 494.97L854.941 495.27C862.811 495.61 864.301 496.38 861.681 498.75C859.721 500.52 849.591 503.47 845.441 503.47C839.961 503.47 818.401 510.77 819.791 512.15C820.001 512.37 826.131 513.17 833.401 513.93C840.671 514.69 846.851 515.55 847.131 515.83C848.091 516.79 846.191 518.68 842.851 520.07C840.511 521.05 835.181 521.47 825.131 521.47C811.161 521.47 810.591 521.55 804.751 524.47C801.451 526.12 797.951 528.35 796.981 529.42C795.281 531.3 795.301 531.39 797.581 531.88C798.881 532.16 803.421 532.53 807.671 532.7C813.361 532.93 815.861 533.46 817.131 534.73C820.601 538.2 817.541 539 801.971 538.66C785.581 538.3 784.251 538.7 774.121 546.95C768.111 551.85 766.991 553.83 770.691 553.02C771.931 552.74 778.111 551.8 784.441 550.92ZM146.921 550.44C146.571 549.87 142.421 546.49 137.701 542.93L129.121 536.46L110.781 537.12C92.761 537.77 90.351 537.43 93.691 534.69C95.481 533.22 104.961 530.73 111.671 529.98C114.831 529.62 117.631 528.98 117.891 528.54C118.161 528.11 116.031 526.47 113.161 524.91C108.121 522.16 107.291 522.04 89.441 521.41C70.481 520.74 67.991 520.35 67.051 517.91C66.111 515.44 70.621 514.08 80.941 513.73C86.441 513.54 92.061 513.14 93.441 512.84L95.941 512.3L93.601 510.4C90.481 507.87 77.821 503.95 66.381 501.96C50.281 499.17 47.201 495.74 59.861 494.72L66.461 494.19L62.201 491.18C59.861 489.52 54.391 485.49 50.051 482.23C40.811 475.3 40.121 475.56 40.761 485.77C41.061 490.69 41.721 493.17 43.151 494.77C44.231 495.98 49.301 502.97 54.401 510.3C60.751 519.42 65.421 524.99 69.191 527.95C76.801 533.93 92.451 541.87 101.441 544.33C119.981 549.39 148.651 553.24 146.921 550.44ZM138.591 524.23C117.881 490.01 105.021 479.75 66.431 466.65C56.811 463.38 47.261 459.9 45.201 458.91C43.151 457.92 41.181 457.39 40.841 457.74C40.491 458.09 40.601 460.5 41.071 463.11C41.861 467.4 42.371 468.07 46.451 470.17C48.931 471.45 54.281 475.2 58.331 478.52C62.391 481.83 65.881 484.36 66.101 484.15C66.311 483.93 65.361 481.78 63.981 479.36C60.991 474.13 60.811 472.47 63.251 472.47C65.631 472.47 69.231 476.42 74.411 484.72C76.721 488.43 80.401 492.99 82.571 494.85C86.101 497.87 97.251 504.47 98.831 504.47C100.151 504.47 99.291 501.36 96.021 494.32C91.301 484.16 90.931 482.6 93.041 481.79C95.481 480.86 98.661 484.96 106.861 499.54C114.961 513.96 117.741 517.32 125.031 521.43C128.051 523.14 133.321 527.1 136.731 530.23C144.781 537.64 145.431 535.54 138.591 524.23ZM784.281 527.8C799.721 516.69 800.941 515.34 807.641 501.97C814.291 488.7 817.791 483.47 820.021 483.47C823.001 483.47 822.561 486.68 818.381 495.48C816.031 500.42 814.411 504.77 814.781 505.14C815.141 505.51 817.791 504.72 820.651 503.39C826.971 500.45 838.951 488.93 842.911 481.97C846.241 476.13 851.271 470.47 853.141 470.47C854.861 470.47 854.781 472.01 852.801 477.21C851.891 479.58 851.401 481.76 851.691 482.06C851.991 482.36 856.221 479.65 861.091 476.04C865.961 472.44 870.681 469.48 871.581 469.48C874.531 469.46 875.781 460.92 872.991 459.85C872.201 459.55 868.031 460.67 863.741 462.34C859.451 464.01 851.941 466.57 847.061 468.03C820.071 476.06 801.401 488.6 788.661 507.25C783.041 515.48 772.441 533.52 772.441 534.86C772.441 536.14 773.911 535.26 784.281 527.8ZM783.781 448.14C796.281 427.07 801.361 413.33 802.181 398.39C803.101 381.85 799.471 368.58 787.171 343.47L780.061 328.97L779.241 344.47C778.781 352.99 778.531 363.06 778.681 366.83L778.941 373.69L783.941 366.39C789.141 358.8 791.041 357.26 792.021 359.82C792.561 361.22 790.461 366.84 782.521 385.19C779.431 392.32 776.711 407.12 777.911 410.26C778.831 412.64 781.881 409.22 788.591 398.31C795.071 387.76 796.851 385.7 797.951 387.49C799.901 390.63 796.011 399.92 786.921 413.87C779.881 424.67 778.691 428.17 777.431 441.82C776.861 447.95 776.111 454.55 775.761 456.47C775.191 459.6 775.291 459.83 776.741 458.64C777.621 457.9 780.791 453.18 783.781 448.14ZM767.461 456.72C767.471 456.31 767.931 451.7 768.501 446.47C770.011 432.4 769.221 428.69 762.681 419.1C753.181 405.17 748.011 392.47 751.841 392.47C753.431 392.47 756.831 396.29 763.751 405.83C766.401 409.48 769.031 412.47 769.601 412.47C770.271 412.47 770.501 409.35 770.251 403.72C769.901 395.87 769.271 393.48 764.081 380.47C757.871 364.92 755.981 356.47 758.711 356.47C761.261 356.47 765.111 361.98 767.431 368.94C768.621 372.53 770.021 375.47 770.521 375.47C771.051 375.47 771.441 365.16 771.441 350.91C771.441 336.51 771.071 326.58 770.531 326.91C769.081 327.81 760.891 342.23 756.421 351.76C750.141 365.18 747.351 377.31 746.711 394.08C746.091 410.37 746.721 413.93 752.951 429.47C760.411 448.04 767.361 461.1 767.461 456.72ZM137.171 440.46L136.411 424.44L128.861 414.3C120.241 402.72 116.771 396.39 115.841 390.55C114.651 383.15 117.671 385.83 128.161 401.5C130.931 405.64 133.931 409.63 134.821 410.37C136.281 411.58 136.441 411.12 136.441 405.64C136.441 396.6 134.791 390.27 128.951 376.97C123.421 364.37 121.851 359.24 122.971 357.43C124.031 355.71 127.311 359.28 130.531 365.65C133.991 372.5 135.171 373.4 136.051 369.88C136.901 366.48 135.561 329.23 134.551 328.19C133.721 327.35 124.461 346.18 119.451 358.88C115.201 369.66 112.531 381.21 111.801 391.97C111.241 400.23 111.441 401.71 114.211 409.97C115.881 414.92 119.511 423.82 122.281 429.74C127.351 440.56 136.341 456.47 137.381 456.47C137.691 456.47 137.601 449.26 137.171 440.46ZM156.471 441.97C164.861 424.17 169.421 407.98 169.431 395.97C169.431 388.54 166.801 372.49 164.411 365.29C161.881 357.71 148.171 329.04 146.601 328.07C144.711 326.9 144.361 331.23 144.661 351.97L144.941 371.97L149.781 365.22C158.191 353.48 160.191 357.83 153.341 372.97C146.631 387.82 145.341 392.29 144.721 402.72C144.411 408.08 144.501 412.47 144.931 412.47C145.821 412.47 145.861 412.42 153.701 402.19C159.741 394.31 162.131 392.49 163.091 395C164.131 397.7 158.981 407.86 150.221 420.39C146.451 425.79 146.441 425.83 146.451 435.89C146.451 441.43 146.751 448.41 147.111 451.38L147.761 456.8L149.751 454.38C150.851 453.06 153.871 447.47 156.471 441.97ZM452.941 893.99C452.391 893.81 449.461 892.91 446.441 891.99C432.731 887.8 417.961 874.88 410.651 860.67C405.781 851.21 405.121 847.76 406.431 838.57C408.801 821.83 417.121 815.1 435.511 815.03C444.561 814.99 445.501 815.19 452.521 818.67C470.761 827.68 486.441 849.7 486.441 866.3C486.441 877.08 477.811 889.45 467.941 892.81C463.651 894.28 455.751 894.9 452.941 893.99ZM462.511 885.43C465.361 883.91 464.891 882.74 460.561 880.53C454.411 877.39 446.481 867.72 439.941 855.38C434.141 844.44 428.181 836.97 422.051 832.95L419.181 831.07L416.691 833.97C410.791 840.83 416.691 858.67 428.941 871C439.291 881.41 456.331 888.74 462.511 885.43ZM476.271 873.16C479.751 865.86 472.521 848.36 461.521 837.44C452.581 828.58 444.281 824.29 434.881 823.68C430.371 823.4 427.461 823.62 427.051 824.3C426.681 824.89 428.781 827.13 431.791 829.36C438.791 834.53 442.061 838.58 447.401 848.7C453.951 861.12 458.941 867.76 465.181 872.39C471.561 877.11 474.291 877.3 476.271 873.16ZM515.201 867.49C512.861 864.21 507.671 856.86 503.681 851.17C469.751 802.79 417.381 754.37 366.741 724.54C356.751 718.66 356.571 718.33 361.381 714.52L365.381 711.35L378.411 719.87C397.151 732.14 417.401 746.67 427.871 755.36C439.061 764.65 472.921 798.46 484.561 811.97C506.421 837.34 524.441 862.02 524.441 866.58C524.441 869.2 521.931 873.47 520.391 873.47C519.881 873.47 517.551 870.78 515.201 867.49ZM460.001 765.04C451.311 761.81 446.981 756.4 445.941 747.48C444.921 738.72 446.171 732.24 450.561 723.47C459.521 705.57 477.041 694.99 494.691 696.84C501.731 697.57 505.161 699.24 509.291 703.96C514.371 709.73 515.671 713.88 515.191 722.72C514.341 738.36 502.581 755.46 487.791 762.56C482.021 765.33 479.591 765.9 472.441 766.17C466.721 766.39 462.651 766.02 460.001 765.04ZM483.761 754.64C497.011 748.11 505.331 735.64 506.111 721.13C506.671 710.88 505.871 709.42 501.291 712.26C494.801 716.3 490.611 721.83 484.991 733.81C480.551 743.26 478.171 746.98 473.181 752.2L466.941 758.74L472.171 758.25C475.151 757.98 480.121 756.42 483.761 754.64ZM465.061 748.25C468.581 745.01 471.111 740.99 475.941 731C480.291 721.98 483.961 715.99 487.831 711.54C490.921 708.01 493.441 704.74 493.441 704.28C493.441 702.94 488.551 704.38 480.611 708.06C466.481 714.6 454.241 730.61 454.111 742.72C454.041 748.83 455.681 752.47 458.501 752.47C459.591 752.47 462.551 750.57 465.061 748.25ZM521.761 762.22C518.091 758.34 516.441 755.34 516.441 752.54C516.441 749.6 518.631 749.97 523.521 753.72C529.461 758.28 530.171 759.7 528.101 762.87C527.161 764.3 526.041 765.47 525.611 765.47C525.181 765.47 523.451 764.01 521.761 762.22ZM561.301 732.71C559.841 731.76 553.541 726.74 547.301 721.56C530.921 708 499.951 685.02 480.631 672.09C459.451 657.92 445.471 649.56 423.191 637.73C403.301 627.17 403.531 627.45 407.691 618.9C410.171 613.78 412.671 612.1 434.981 600.54C447.651 593.97 452.291 590.99 451.331 590.03C451.011 589.71 441.641 586.36 430.521 582.59C419.391 578.82 409.581 575.03 408.711 574.17C407.361 572.82 407.331 572.16 408.461 569.42C409.701 566.42 410.001 566.28 413.891 566.81C419.311 567.55 453.541 578.96 459.941 582.16C466.551 585.46 469.121 585.02 484.391 578.03C491.231 574.9 498.001 572.11 499.441 571.82C502.581 571.19 504.741 573.35 504.271 576.66C503.901 579.22 503.241 579.57 448.031 606.51C421.241 619.58 417.321 621.78 418.561 623.02C420.021 624.48 434.421 632.65 447.031 639.17L454.131 642.83L459.491 639.53C469.861 633.15 506.491 614.38 507.431 614.96C507.961 615.29 508.891 617.42 509.501 619.71C510.881 624.83 512.001 623.92 490.441 635.14C469.441 646.06 465.321 648.47 465.941 649.48C467.281 651.65 500.261 672.47 502.361 672.47C503.251 672.47 508.691 669.78 514.461 666.49C520.221 663.2 526.181 660.5 527.691 660.49C530.141 660.47 530.441 660.83 530.441 663.8C530.441 667.59 529.011 669.13 519.691 675.36C516.251 677.66 513.441 679.89 513.441 680.3C513.441 681.59 520.261 687.62 536.101 700.33C560.661 720.04 570.051 729.5 568.721 733.22C568.081 735.01 564.391 734.75 561.301 732.71ZM179.341 706.29C177.611 703.05 178.851 684.49 181.371 675.97C184.201 666.4 184.221 666.47 178.691 666.46C166.321 666.45 151.991 661.39 144.691 654.46C140.771 650.74 140.701 650.13 143.981 648.63C147.961 646.82 174.511 639.56 179.821 638.83C184.081 638.25 184.531 637.95 183.981 636.07C179.591 621.01 181.811 598.74 187.811 597.62C189.061 597.39 191.881 599.54 196.341 604.12C203.851 611.84 207.501 617.58 210.971 627.14C212.281 630.76 213.601 633.97 213.911 634.27C214.221 634.58 215.931 633.43 217.701 631.71C228.641 621.17 257.441 615.25 257.441 623.55C257.441 629.2 247.251 641.42 237.131 647.89C234.001 649.89 231.441 651.96 231.441 652.49C231.441 653.01 233.351 654.65 235.691 656.12C245.201 662.12 258.441 679.81 258.441 686.51C258.441 688.73 258.301 688.75 249.191 688.15C237.431 687.37 230.041 685.38 219.711 680.21C215.191 677.94 211.331 676.29 211.141 676.53C210.951 676.77 208.581 680.35 205.881 684.47C200.031 693.38 185.331 708.47 182.491 708.47C181.401 708.47 179.981 707.49 179.341 706.29ZM201.341 677.44C207.871 664.37 206.551 662.44 199.461 674.7C193.431 685.12 190.401 682.12 194.901 670.17C197.981 662 198.001 661.65 195.331 664.07C190.591 668.36 186.721 679.15 185.861 690.47L185.291 697.97L191.261 691.8C195.111 687.83 198.691 682.72 201.341 677.44ZM248.881 681.57C249.631 680.36 241.711 669.77 236.901 665.56C233.331 662.43 221.891 656.47 219.461 656.47C217.141 656.47 218.761 658.64 223.941 662.47C226.961 664.7 229.441 666.97 229.441 667.5C229.441 669 224.711 668.65 219.371 666.75C210.101 663.46 212.341 668.01 222.721 673.54C228.351 676.54 244.271 682.34 247.131 682.43C247.791 682.45 248.571 682.07 248.881 681.57ZM188.321 659.57C190.671 658.08 188.521 656.47 184.131 656.45C179.651 656.42 172.701 655.06 171.641 654C170.601 652.96 173.441 651.69 178.361 651.01C187.131 649.78 189.441 649.24 189.441 648.4C189.441 646.68 181.971 646.25 171.891 647.38C154.701 649.32 151.251 651.74 160.191 655.58C170.241 659.9 184.581 661.94 188.321 659.57ZM227.531 647.54C234.201 643.11 248.981 627.61 247.731 626.36C246.281 624.91 239.841 626.76 229.511 631.58C220.021 636.01 214.441 639.87 214.441 642.02C214.441 643.89 214.761 643.86 219.441 641.47C223.341 639.48 227.441 638.82 227.441 640.19C227.441 640.58 225.321 643.05 222.731 645.69C218.241 650.24 218.141 650.47 220.561 650.47C221.951 650.47 225.091 649.15 227.531 647.54ZM196.961 638.16C195.111 633.32 195.221 629.36 197.211 628.71C197.991 628.45 199.771 631.12 201.841 635.63L205.201 642.97L206.481 640.22C207.521 638 207.521 636.67 206.481 633.23C204.681 627.21 197.101 612.4 193.831 608.52C191.251 605.46 190.991 605.37 189.761 607.05C187.651 609.94 188.031 627.97 190.311 632.97C192.281 637.29 197.391 643.86 198.171 643.07C198.441 642.81 197.891 640.6 196.961 638.16ZM398.441 706.87C391.511 705.02 380.621 699.98 377.761 697.3C375.931 695.58 375.761 694.87 376.671 692.86C378.231 689.43 381.191 689.81 390.711 694.67C398.571 698.67 399.421 698.88 409.611 699.27C421.731 699.74 427.521 698.37 434.371 693.41C438.661 690.3 439.651 687.16 436.691 685.99C434.931 685.3 420.681 684.15 395.221 682.66C387.671 682.22 381.171 681.54 380.781 681.14C380.391 680.75 380.501 679.2 381.041 677.7L382.011 674.97L404.471 675.18C416.831 675.3 429.861 675.81 433.441 676.32C437.021 676.82 440.131 677.06 440.371 676.84C441.421 675.87 436.321 670.69 431.361 667.69C424.151 663.33 420.081 662.36 408.991 662.33C402.321 662.32 397.761 662.91 392.881 664.41C385.671 666.64 384.041 666.26 384.611 662.45C384.831 660.93 386.731 659.18 390.441 657.08C395.821 654.04 396.241 653.97 408.941 653.97C424.011 653.97 430.351 655.55 438.741 661.4C449.691 669.04 453.691 682.26 447.991 691.98C440.411 704.92 417.231 711.88 398.441 706.87ZM724.781 704.64C719.361 700.36 711.371 690.69 707.111 683.27C705.631 680.69 703.961 678.29 703.401 677.94C702.841 677.6 700.031 678.87 697.161 680.78C694.291 682.68 690.231 684.95 688.141 685.82C682.691 688.1 670.421 690.47 664.101 690.47C654.821 690.47 654.461 687.26 662.401 675.16C669.121 664.92 678.861 656.47 683.971 656.47C686.741 656.47 684.971 654.06 681.721 653.39C674.461 651.91 666.231 644.18 660.541 633.5C656.751 626.4 656.821 623.52 660.831 621.61C663.181 620.48 665.021 620.44 670.611 621.36C681.861 623.22 690.191 627.08 696.061 633.16L701.171 638.46L703.891 631.02C708.051 619.62 718.461 603.47 724.001 599.84C726.321 598.32 726.621 598.33 728.421 599.95C732.771 603.89 733.611 624.02 729.871 634.8C728.691 638.21 728.511 639.94 729.261 640.69C729.851 641.28 734.521 642.13 739.631 642.57C755.451 643.96 771.441 649.45 771.441 653.48C771.441 655.78 765.711 660.23 756.941 664.75C751.731 667.44 749.651 667.9 741.191 668.27C735.831 668.51 731.441 668.89 731.441 669.12C731.441 669.35 732.311 672.12 733.371 675.27C736.261 683.84 737.981 701.58 736.261 705.16C734.201 709.48 730.701 709.32 724.781 704.64ZM729.431 693.72C729.391 685.21 724.091 669.91 719.991 666.51C717.301 664.28 717.281 665.92 719.911 671.57C722.841 677.88 722.951 678.8 720.941 680.47C718.911 682.16 717.311 680.74 713.261 673.66C711.511 670.59 709.901 668.6 709.691 669.23C708.751 672.03 720.581 693.06 724.731 695.96C728.241 698.42 729.441 697.85 729.431 693.72ZM681.731 680.51C688.251 678.02 699.601 670.7 700.271 668.57C700.751 667.02 700.031 667.16 692.221 670.14C688.341 671.61 687.271 671.7 686.221 670.63C685.181 669.56 685.451 668.92 687.701 667.14C689.221 665.95 691.701 663.97 693.201 662.75L695.941 660.53L693.441 660.5C689.511 660.45 679.301 665.85 675.291 670.1C671.201 674.43 666.441 681.23 666.441 682.74C666.441 684.27 675.241 682.99 681.731 680.51ZM742.371 662.41C749.151 661.31 758.441 657.82 758.441 656.37C758.441 655.11 750.711 651.37 744.941 649.83C739.191 648.29 729.831 648.04 728.991 649.39C728.681 649.9 731.461 650.63 735.181 651.02C742.921 651.82 748.591 654.13 746.341 655.56C745.571 656.04 740.221 656.46 734.441 656.48L723.941 656.52L727.681 660C731.751 663.79 732.821 663.96 742.371 662.41ZM696.441 651.64C696.441 651.18 694.641 649.36 692.441 647.59C687.841 643.89 687.251 641.47 690.941 641.47C694.651 641.47 694.001 639.9 688.691 635.99C680.901 630.26 666.631 625.74 664.941 628.46C663.601 630.64 679.041 644.65 687.321 648.79C694.961 652.59 696.441 653.06 696.441 651.64ZM722.371 637.09C724.531 632.59 726.211 616.68 725.021 611.94L724.331 609.2L721.401 612.01C718.121 615.15 710.321 629.66 708.371 636.25C707.491 639.21 707.421 640.85 708.141 641.57C709.261 642.69 711.511 640.26 714.681 634.5C717.961 628.54 719.491 634.04 716.901 642.47C716.131 644.95 716.141 644.96 718.261 643.09C719.431 642.05 721.281 639.35 722.371 637.09ZM644.641 635.27C642.761 633.39 643.231 626.81 645.571 622.18C646.741 619.86 649.671 616.15 652.071 613.93L656.431 609.89L646.981 604.55C641.791 601.61 636.501 598.1 635.241 596.75L632.941 594.3L635.891 591.77C638.801 589.25 638.971 589.23 652.891 589.71C660.621 589.97 667.591 590.36 668.381 590.58C669.431 590.86 670.031 589.62 670.581 585.99C671.491 580.05 678.271 565.92 681.821 562.58C686.781 557.92 689.541 562.26 692.081 578.77C694.211 592.62 693.661 591.73 698.651 589.46C701.841 588.01 705.191 587.51 711.721 587.49C721.511 587.47 722.661 588.24 720.091 593.13C717.921 597.25 707.741 606.84 701.941 610.23C696.791 613.24 696.561 613.8 698.001 619.72C698.571 622.06 698.361 622.47 696.571 622.47C695.411 622.47 690.521 620.81 685.701 618.77C677.931 615.49 675.981 615.07 668.441 615.06C654.871 615.03 650.641 618.56 651.821 628.9C652.161 631.85 651.951 634.36 651.291 635.15C649.921 636.8 646.231 636.86 644.641 635.27ZM671.441 605.54C671.441 603.7 664.181 598.69 659.121 597.04C652.441 594.86 644.441 593.86 644.441 595.21C644.441 597.01 647.161 598.57 657.151 602.54C666.831 606.37 671.441 607.34 671.441 605.54ZM699.011 603.58C706.781 600.05 713.431 592.47 708.761 592.47C704.411 592.47 691.441 601.14 691.441 604.04C691.441 605.97 694.101 605.81 699.011 603.58ZM687.471 594.41C689.541 590.55 685.471 572.47 682.541 572.47C680.911 572.47 677.091 583 676.651 588.72C676.401 591.88 676.471 594.47 676.801 594.47C677.131 594.47 678.361 592.56 679.541 590.22C680.721 587.88 681.881 585.76 682.121 585.5C683.101 584.43 684.411 588.25 684.421 592.22C684.441 596.8 685.711 597.71 687.471 594.41ZM265.111 633.8C264.081 632.78 264.321 624.93 265.461 621.93C266.321 619.65 266.701 619.44 268.031 620.54C269.931 622.12 273.441 628.83 273.441 630.89C273.441 633.47 267.011 635.71 265.111 633.8ZM217.111 622.8C215.841 621.54 216.451 618.2 218.551 614.79C219.721 612.9 220.501 611.24 220.301 611.08C220.101 610.92 216.791 609.34 212.941 607.57C209.091 605.8 204.921 603.39 203.671 602.21C200.791 599.51 196.021 592.1 193.911 587.05L192.281 583.16L200.931 583.83C205.691 584.19 212.121 585.35 215.231 586.4C218.341 587.45 221.171 588.13 221.521 587.92C221.871 587.7 222.461 584.16 222.841 580.06C223.701 570.55 225.871 563.25 228.861 559.77C230.971 557.32 231.391 557.19 232.961 558.49C237.641 562.37 244.431 577.58 244.461 584.24C244.481 590.39 245.211 590.78 252.391 588.49C263.011 585.09 274.941 586.53 279.231 591.71C280.331 593.04 279.891 593.78 276.231 596.78C273.871 598.71 268.421 602.24 264.121 604.63C259.821 607.02 255.321 609.53 254.121 610.21C252.921 610.88 250.241 611.45 248.171 611.46C243.121 611.48 235.451 614.33 226.961 619.34C219.961 623.48 218.351 624.04 217.111 622.8ZM224.441 602.69C224.441 598.91 211.111 589.47 205.781 589.47C203.951 589.47 202.441 589.82 202.441 590.26C202.441 591.84 212.031 600.41 215.441 601.88C219.191 603.5 224.441 603.97 224.441 602.69ZM257.261 599.91C264.661 597.45 273.141 592.84 272.141 591.83C271.871 591.56 268.791 591.86 265.291 592.48C258.021 593.78 248.351 597.81 245.841 600.58C244.201 602.39 244.251 602.47 246.861 602.47C248.361 602.47 253.041 601.32 257.261 599.91ZM231.441 590.47C232.561 588.27 233.711 586.47 234.001 586.47C234.291 586.47 235.371 588.38 236.411 590.72L238.301 594.97L238.341 588.47C238.391 580.92 234.751 568.97 232.401 568.97C230.061 568.97 227.531 578.09 227.481 586.72C227.461 591.14 227.861 594.47 228.421 594.47C228.961 594.47 230.321 592.67 231.441 590.47ZM605.691 586.8C603.431 585.22 602.681 582.06 604.331 581.04C608.041 578.74 673.051 560.75 674.041 561.74C674.391 562.08 673.641 564.02 672.391 566.05C669.481 570.77 664.141 573.19 645.441 578.32C637.471 580.51 627.141 583.69 622.501 585.38C613.151 588.8 609.061 589.14 605.691 586.8ZM291.941 584.43C288.641 582.85 279.431 579.7 271.471 577.43C255.331 572.83 253.441 572.04 253.441 569.93C253.441 567.6 259.461 568.13 275.581 571.9C294.821 576.39 303.941 579.16 305.421 580.94C306.391 582.12 306.111 582.88 303.891 584.93C300.501 588.07 299.441 588.03 291.941 584.43ZM339.571 561.39C335.381 559.72 283.321 549.61 270.411 547.97C254.341 545.92 250.041 544.64 249.631 541.78C249.081 537.91 253.321 536.12 261.191 536.92C287.981 539.64 335.861 549.45 347.441 554.6L351.941 556.6L348.671 559.54C345.251 562.61 343.501 562.97 339.571 561.39ZM495.941 558.77C494.841 558.5 475.721 553.85 453.441 548.42C402.951 536.12 333.921 522.78 288.441 516.53C264.441 513.23 259.491 512.37 258.861 511.34C258.021 509.97 261.141 505.57 263.801 504.35C273.361 500 478.841 539.46 500.431 549.79C503.151 551.1 503.941 553.32 503.011 557.05C502.401 559.49 500.711 559.89 495.941 558.77ZM555.931 557.34C551.071 554.75 536.331 543.36 531.191 538.22C528.061 535.09 527.441 533.78 527.441 530.33C527.441 525.64 530.861 513.16 533.111 509.64C534.531 507.41 534.691 507.38 536.501 509.02C539.201 511.47 551.441 543.97 551.441 548.7C551.441 549.71 552.071 550.78 552.841 551.07C554.051 551.53 591.241 542.49 607.291 537.82C612.281 536.38 612.601 536.09 612.101 533.62C611.331 529.75 598.941 494.64 598.041 493.74C597.301 493 596.271 494.09 592.001 500.11C590.941 501.61 589.911 502.37 589.721 501.8C589.241 500.36 594.921 480.38 596.891 476.57C599.991 470.57 601.091 472.17 606.791 490.97C609.291 499.22 612.911 511.75 614.851 518.82C616.781 525.89 618.921 532.34 619.601 533.16C621.861 535.89 638.621 532.88 640.471 529.42C641.051 528.32 642.381 524.18 643.411 520.2C645.801 510.97 649.251 503.24 650.761 503.74C652.651 504.36 656.351 510.42 657.541 514.85C658.141 517.09 659.941 521.51 661.541 524.67C664.761 531.05 665.131 533.66 663.031 535.39C662.261 536.03 649.771 539.2 635.281 542.44C620.791 545.67 598.871 550.83 586.561 553.89C574.251 556.96 563.221 559.47 562.041 559.47C560.871 559.47 558.121 558.51 555.931 557.34ZM657.421 524.22C657.411 522.4 657.221 522.26 656.441 523.47C655.191 525.41 655.191 526.47 656.441 526.47C656.991 526.47 657.431 525.46 657.421 524.22ZM309.681 462.31C307.761 460.39 308.201 456.74 311.021 451.12C317.531 438.11 326.101 430.36 342.451 422.66C349.321 419.42 354.201 416.38 356.591 413.84C360.741 409.44 368.591 397.41 376.401 383.47C387.081 364.42 392.701 357.41 404.551 348.39C419.411 337.07 431.731 320.72 438.381 303.47C443.191 291.01 448.061 263.81 449.121 243.47L449.731 231.97L447.641 233.82C446.491 234.84 442.501 240.02 438.771 245.32C430.151 257.59 420.211 268.04 414.441 270.91C411.961 272.13 407.111 274.18 403.651 275.44C395.831 278.3 394.511 279.8 376.331 306.47C368.641 317.74 357.741 333.49 352.101 341.47C346.461 349.45 338.561 361.28 334.551 367.77C321.991 388.05 315.551 393.62 291.041 405.32C283.941 408.71 276.221 413.05 273.871 414.97C271.521 416.9 269.141 418.47 268.581 418.47C268.021 418.47 266.331 414.68 264.821 410.05L262.081 401.64L272.621 385.8C278.421 377.09 283.671 368.99 284.301 367.79C286.141 364.26 285.651 359.45 281.941 344.33C278.891 331.9 278.441 328.48 278.441 317.59V305.1L275.321 308.03C273.601 309.65 264.961 319.52 256.111 329.97C236.691 352.91 228.741 361.38 225.501 362.63C224.151 363.15 219.771 363.98 215.761 364.49C207.611 365.53 202.301 367.87 195.011 373.64C188.981 378.42 186.901 378.31 187.051 373.22C187.191 368.63 189.351 365.28 194.621 361.46C198.531 358.63 201.491 357.52 214.731 353.95C222.271 351.92 224.761 349.6 246.591 324.31C264.791 303.23 280.731 285.83 285.701 281.62C288.411 279.32 288.541 279.31 291.211 281.04C299.431 286.37 329.991 310.6 341.801 321.13C344.471 323.52 347.251 325.47 347.981 325.47C349.871 325.47 354.251 319.72 370.031 296.51C377.681 285.25 385.321 274.68 387.001 273.01C388.691 271.34 394.241 268.22 399.331 266.08C404.431 263.95 410.771 260.49 413.421 258.39C417.771 254.96 434.441 233.27 450.571 210.07C453.681 205.59 456.561 202.47 457.571 202.47C458.521 202.47 461.271 205.06 463.691 208.22C466.101 211.38 471.781 218.7 476.301 224.47C480.821 230.24 487.291 239.02 490.681 243.97C498.221 254.99 507.591 264.99 512.941 267.71C522.681 272.65 528.971 280.37 540.471 301.47C549.251 317.58 551.121 319.29 556.761 316.32C559.131 315.08 576.841 300.06 601.641 278.27C610.281 270.68 617.621 264.47 617.961 264.47C618.291 264.47 619.781 265.92 621.251 267.7C622.731 269.48 628.841 276.34 634.841 282.95C640.831 289.56 652.131 302.62 659.951 311.97C671.701 326.02 683.301 338.47 684.651 338.47C684.811 338.47 688.621 339.12 693.131 339.91C705.731 342.13 708.971 344.21 721.691 358.28C729.781 367.23 730.921 370.06 728.031 374.02C726.691 375.85 726.051 375.4 716.281 365.9C703.511 353.48 699.031 350.74 689.551 349.55C677.801 348.07 674.191 345.03 647.821 314.33C628.851 292.25 625.151 288.43 623.911 289.66C623.671 289.9 622.791 297.23 621.961 305.93C620.121 325.17 620.371 326.37 628.811 338.77C632.261 343.83 636.691 350.89 638.651 354.47L642.211 360.97L642.771 386.97C643.081 401.57 643.851 415.22 644.521 418.1C645.641 422.85 645.551 423.54 643.321 427.59C642.001 429.98 640.211 432.08 639.361 432.25C637.181 432.67 616.991 408.83 594.231 378.97C584.601 366.33 583.991 365.79 572.001 359.02C566.531 355.93 560.141 351.83 557.791 349.9C551.941 345.11 544.481 333.49 532.551 310.57C526.991 299.91 520.851 289.24 518.911 286.87C516.961 284.49 511.681 280.1 507.161 277.11C497.121 270.45 493.161 266.3 482.541 251.32C471.641 235.95 463.431 226.07 462.411 227.12C460.781 228.79 456.881 275.88 457.641 284.65C458.011 288.88 459.661 292.85 465.691 303.97C469.851 311.67 474.991 322.45 477.101 327.93C481.541 339.45 487.371 346.64 497.001 352.47C505.721 357.75 512.441 364.3 514.961 369.97C519.361 379.89 529.561 412.6 529.251 415.79C529.001 418.36 528.451 419.03 526.391 419.27C524.821 419.45 523.141 418.8 522.051 417.59C521.071 416.51 517.231 406.92 513.521 396.29C509.811 385.67 506.041 375.56 505.151 373.85C503.501 370.69 498.211 365.94 488.781 359.15C479.351 352.36 473.171 344.64 468.491 333.84C463.791 322.97 456.161 308.22 453.421 304.73C451.321 302.05 450.831 302.52 447.151 310.7C443.821 318.1 433.451 334.08 426.571 342.42C423.601 346.02 420.591 350.34 419.881 352.02C419.161 353.7 418.101 360.45 417.501 367.02C415.751 386.37 417.451 392.38 429.081 408.07C436.241 417.72 443.131 430.8 447.271 442.6L450.301 451.23L447.351 454.05L444.401 456.88L442.391 454.86C441.281 453.76 438.801 448.62 436.881 443.45C432.501 431.68 426.571 421.52 415.831 407.39L407.441 396.34V381.53C407.441 365.58 406.821 360.18 405.061 360.76C403.461 361.29 391.511 379.3 380.431 397.89C367.061 420.32 363.421 424.01 346.691 432.07C331.321 439.48 326.621 443.51 319.431 455.47C314.881 463.04 312.251 464.88 309.681 462.31ZM632.331 377.82C632.441 365.12 632.341 364.49 629.511 359.1C627.891 356.03 623.681 349.35 620.141 344.25C610.261 330.01 610.021 329.4 610.101 318.47C610.141 313.24 610.901 304.92 611.801 299.97C613.711 289.45 613.881 284.47 612.331 284.47C610.951 284.47 602.081 291.47 583.951 306.86C566.331 321.81 556.441 331.43 556.441 333.61C556.441 336.49 565.501 343.46 575.441 348.21C589.631 355 592.851 358.25 616.291 389.47L630.941 408.97L631.581 399.97C631.941 395.02 632.281 385.05 632.331 377.82ZM293.441 393.34C309.261 384.83 315.041 378.9 326.961 358.97C331.241 351.82 336.451 343.72 338.541 340.98L342.351 335.98L339.641 333.12C330.061 322.99 293.621 293.89 292.241 295.27C291.331 296.18 287.471 320.41 287.451 325.27C287.441 327.08 289.051 334.06 291.011 340.77C295.201 355.06 296.071 361.46 294.581 366.98C293.981 369.18 289.911 377.26 285.531 384.93C281.161 392.6 277.791 399.23 278.061 399.66C278.671 400.64 283.701 398.57 293.441 393.34ZM76.301 453.53C72.921 450.76 74.121 449.36 88.041 439.76L99.941 431.55L102.191 434.06C105.111 437.33 105.031 438.55 101.691 441.64C96.651 446.31 82.021 455.47 79.601 455.47C79.081 455.47 77.601 454.6 76.301 453.53ZM822.901 447.41C809.721 439.39 809.951 439.67 813.041 435.72C814.441 433.93 815.981 432.47 816.471 432.47C817.611 432.47 832.581 442.6 838.231 447.19C841.671 449.98 842.291 450.95 841.361 452.07C838.831 455.12 833.261 453.71 822.901 447.41ZM718.411 401.36C709.471 397.39 689.491 386.05 688.951 384.64C688.171 382.6 691.111 378.47 693.351 378.47C695.631 378.47 717.671 389.64 722.181 393.09C724.501 394.86 725.441 396.38 725.441 398.4C725.441 402.87 723.571 403.65 718.411 401.36ZM546.681 278.42C545.441 277.93 543.961 276.5 543.381 275.24C542.511 273.33 543.301 270.96 548.301 260.47C557.861 240.42 558.941 235.97 558.941 216.47C558.941 200.37 558.861 199.74 555.621 190.47C550.831 176.71 545.081 166.63 536.281 156.53C525.131 143.74 515.701 136.14 503.941 130.48C485.631 121.65 471.761 118.77 452.501 119.8C437.751 120.59 426.281 123.39 414.941 128.96C403.211 134.72 395.071 141 382.761 153.78C374.071 162.8 372.041 165.59 367.641 174.59C359.411 191.4 357.131 200.39 357.031 216.47C356.921 232.54 358.571 239.74 366.511 257.94L371.651 269.72L369.131 272.23C364.701 276.67 362.491 274.2 354.961 256.39C348.431 240.95 347.131 234.01 347.101 214.47C347.071 199.33 347.291 197.23 349.791 188.97C356.361 167.27 366.901 151.35 385.561 134.93C393.931 127.56 410.971 118.32 425.461 113.29L434.941 110.01L457.441 109.99L479.941 109.97L490.941 113.77C502.821 117.88 516.141 124.53 522.781 129.66C541.001 143.75 551.701 155.95 558.991 170.96C567.601 188.68 568.671 192.76 569.221 209.67C569.961 232.87 567.041 246.36 556.941 266.47C551.361 277.57 549.631 279.59 546.681 278.42ZM585.071 190.4C581.541 187.62 581.761 185.65 585.771 183.98C589.761 182.31 668.161 167.62 677.461 166.8C684.701 166.16 686.881 167.36 686.271 171.66C685.961 173.83 684.571 174.25 662.941 178.66C638.761 183.6 591.271 192.47 589.031 192.47C588.301 192.47 586.521 191.54 585.071 190.4ZM301.441 187.83C291.821 185.95 273.821 182.44 261.441 180.02C229.681 173.82 223.211 171.27 227.711 166.77C229.371 165.11 230.061 165.12 241.671 166.8C257.501 169.09 310.631 179.03 320.891 181.61C330.471 184.03 332.441 185 332.441 187.31C332.441 192.49 325.941 192.6 301.441 187.83ZM568.541 151.77L565.481 148.06L567.701 145.69C571.891 141.23 603.371 122.47 606.661 122.47C607.521 122.47 609.281 123.37 610.581 124.48L612.941 126.49L609.571 129.41C605.641 132.8 581.871 149.41 575.771 153.02L571.601 155.49L568.541 151.77ZM328.871 145.35C302.781 130.15 300.781 128.28 305.651 123.78L307.941 121.66L320.441 128.67C336.941 137.92 346.751 144.05 348.961 146.5C350.711 148.43 350.691 148.57 348.431 150.98C347.141 152.35 345.351 153.47 344.451 153.47C343.551 153.47 336.541 149.82 328.871 145.35ZM366.711 116.72C363.241 113.01 358.761 107.61 356.751 104.72L353.101 99.46L355.441 96.97C356.731 95.59 358.571 94.47 359.531 94.47C363.051 94.47 378.441 113.61 378.441 117.99C378.441 120.11 375.661 123.47 373.901 123.47C373.411 123.47 370.181 120.43 366.711 116.72ZM539.091 121.64C536.441 118.7 537.121 115.06 541.301 109.81C545.991 103.92 555.411 94.47 556.581 94.47C558.171 94.47 561.441 98.45 561.441 100.38C561.441 103.68 544.671 123.47 541.881 123.47C541.261 123.47 540.011 122.65 539.091 121.64ZM455.301 91.56C453.001 89.7 452.931 89.21 452.611 71L452.281 52.36L457.611 52.66L462.941 52.97L463.211 71.2C463.471 88.36 463.371 89.54 461.461 91.45C458.961 93.95 458.271 93.96 455.301 91.56ZM306.411 855.23C302.411 852.53 301.671 850.38 303.961 848.09C307.831 844.22 315.901 848.62 315.251 854.24C314.831 857.91 311.021 858.34 306.411 855.23ZM599.051 855.32C597.741 853.46 597.731 852.81 598.941 850.46C600.831 846.82 605.701 844.81 608.991 846.31C612.471 847.9 612.201 851.65 608.361 854.88C604.621 858.03 601.061 858.2 599.051 855.32ZM365.371 831.34C362.921 826.75 367.301 822.87 374.071 823.64C377.741 824.06 378.311 827.09 375.411 830.78C372.681 834.25 367.101 834.57 365.371 831.34ZM540.811 833.7C538.911 832.16 536.441 828.44 536.441 827.11C536.441 825.89 539.761 823.47 541.431 823.47C544.311 823.47 549.441 828.31 549.441 831.02C549.441 833.34 546.921 835.49 544.261 835.45C543.531 835.44 541.981 834.65 540.811 833.7ZM267.021 826.38C263.891 822.66 263.721 817.22 266.721 816.65C269.621 816.1 274.601 822.21 274.241 825.88C273.811 830.3 270.511 830.53 267.021 826.38ZM639.111 828.8C636.881 826.58 642.111 818.34 646.681 816.9C651.691 815.3 652.031 822.06 647.201 827.22C645.211 829.35 640.561 830.26 639.111 828.8ZM314.661 789.91C311.931 788 311.791 784.89 314.371 783.51C315.441 782.94 318.351 782.47 320.841 782.47C324.351 782.47 325.611 782.92 326.441 784.47C329.311 789.83 320.421 793.94 314.661 789.91ZM589.441 790.47C588.341 789.37 587.441 788.02 587.441 787.47C587.441 786.92 588.341 785.57 589.441 784.47C593.261 780.65 601.441 782.63 601.441 787.39C601.441 792.11 593.201 794.23 589.441 790.47ZM356.501 769.04C354.761 766.95 355.591 760.39 357.751 759.07C359.251 758.16 360.061 758.53 362.501 761.24C365.631 764.71 366.191 767.32 364.241 769.27C362.591 770.92 357.941 770.78 356.501 769.04ZM550.641 769.27C548.701 767.33 549.261 762.99 551.751 760.64C554.511 758.06 555.761 757.94 557.871 760.04C560.251 762.42 559.781 766.05 556.811 768.4C553.791 770.77 552.341 770.97 550.641 769.27ZM260.441 768.97C259.451 767.77 259.451 766.85 260.471 764.39C262.071 760.53 265.501 758.23 269.021 758.65C272.411 759.05 273.931 761.36 273.071 764.8C271.911 769.41 263.201 772.29 260.441 768.97ZM643.081 768.4C637.051 763.66 642.531 755.77 649.241 759.53C652.501 761.36 654.321 765.84 652.801 768.27C651.181 770.85 646.281 770.92 643.081 768.4ZM306.611 736.16C303.781 733.13 303.861 730.69 306.841 729.33C309.821 727.97 314.241 729.28 316.091 732.07C317.201 733.75 317.171 734.41 315.871 736.27C313.821 739.2 309.421 739.15 306.611 736.16ZM600.091 736.64C596.441 732.61 599.021 728.47 605.171 728.47C608.581 728.47 610.441 730.07 610.441 733.01C610.441 737.81 603.391 740.28 600.091 736.64Z" fill="#D4B564"/>
</svg>
